<svg width="1200" height="76" viewBox="0 0 1200 76" fill="none" xmlns="http://www.w3.org/2000/svg">
<path d="M3.564 51V25.8H8.172V43.692L21.708 25.8H26.064V51H21.456V33.144L7.92 51H3.564ZM32.6256 51V31.776H37.1256V39.588H46.8096V31.776H51.3096V51H46.8096V43.404H37.1256V51H32.6256ZM61.3364 51V34.512L62.3804 35.592H54.5684V31.776H72.5684V35.592H64.7924L65.8364 34.512V51H61.3364ZM83.9528 51.252C81.8168 51.252 79.9448 50.832 78.3368 49.992C76.7528 49.128 75.5168 47.952 74.6288 46.464C73.7648 44.976 73.3328 43.284 73.3328 41.388C73.3328 39.468 73.7528 37.776 74.5928 36.312C75.4568 34.824 76.6328 33.66 78.1208 32.82C79.6328 31.98 81.3488 31.56 83.2688 31.56C85.1408 31.56 86.8088 31.968 88.2728 32.784C89.7368 33.6 90.8888 34.752 91.7288 36.24C92.5688 37.728 92.9888 39.48 92.9888 41.496C92.9888 41.688 92.9768 41.904 92.9528 42.144C92.9528 42.384 92.9408 42.612 92.9168 42.828H76.8968V39.84H90.5408L88.7768 40.776C88.8008 39.672 88.5728 38.7 88.0928 37.86C87.6128 37.02 86.9528 36.36 86.1128 35.88C85.2968 35.4 84.3488 35.16 83.2688 35.16C82.1648 35.16 81.1928 35.4 80.3528 35.88C79.5368 36.36 78.8888 37.032 78.4088 37.896C77.9528 38.736 77.7248 39.732 77.7248 40.884V41.604C77.7248 42.756 77.9888 43.776 78.5168 44.664C79.0448 45.552 79.7888 46.236 80.7488 46.716C81.7088 47.196 82.8128 47.436 84.0608 47.436C85.1408 47.436 86.1128 47.268 86.9768 46.932C87.8408 46.596 88.6088 46.068 89.2808 45.348L91.6928 48.12C90.8288 49.128 89.7368 49.908 88.4168 50.46C87.1208 50.988 85.6328 51.252 83.9528 51.252ZM108.567 51.252C107.007 51.252 105.579 50.892 104.283 50.172C103.011 49.452 101.991 48.372 101.223 46.932C100.479 45.468 100.107 43.62 100.107 41.388C100.107 39.132 100.467 37.284 101.187 35.844C101.931 34.404 102.939 33.336 104.211 32.64C105.483 31.92 106.935 31.56 108.567 31.56C110.463 31.56 112.131 31.968 113.571 32.784C115.035 33.6 116.187 34.74 117.027 36.204C117.891 37.668 118.323 39.396 118.323 41.388C118.323 43.38 117.891 45.12 117.027 46.608C116.187 48.072 115.035 49.212 113.571 50.028C112.131 50.844 110.463 51.252 108.567 51.252ZM97.9107 57.984V31.776H102.195V36.312L102.051 41.424L102.411 46.536V57.984H97.9107ZM108.063 47.4C109.143 47.4 110.103 47.16 110.943 46.68C111.807 46.2 112.491 45.504 112.995 44.592C113.499 43.68 113.751 42.612 113.751 41.388C113.751 40.14 113.499 39.072 112.995 38.184C112.491 37.272 111.807 36.576 110.943 36.096C110.103 35.616 109.143 35.376 108.063 35.376C106.983 35.376 106.011 35.616 105.147 36.096C104.283 36.576 103.599 37.272 103.095 38.184C102.591 39.072 102.339 40.14 102.339 41.388C102.339 42.612 102.591 43.68 103.095 44.592C103.599 45.504 104.283 46.2 105.147 46.68C106.011 47.16 106.983 47.4 108.063 47.4ZM132.449 38.112C134.921 38.112 136.805 38.664 138.101 39.768C139.397 40.872 140.045 42.432 140.045 44.448C140.045 46.536 139.325 48.168 137.885 49.344C136.445 50.496 134.417 51.06 131.801 51.036L122.801 51V31.776H127.301V38.076L132.449 38.112ZM131.405 47.724C132.725 47.748 133.733 47.472 134.429 46.896C135.125 46.32 135.473 45.48 135.473 44.376C135.473 43.272 135.125 42.48 134.429 42C133.757 41.496 132.749 41.232 131.405 41.208L127.301 41.172V47.688L131.405 47.724ZM152.965 51.252C150.829 51.252 148.957 50.832 147.349 49.992C145.765 49.128 144.529 47.952 143.641 46.464C142.777 44.976 142.345 43.284 142.345 41.388C142.345 39.468 142.765 37.776 143.605 36.312C144.469 34.824 145.645 33.66 147.133 32.82C148.645 31.98 150.361 31.56 152.281 31.56C154.153 31.56 155.821 31.968 157.285 32.784C158.749 33.6 159.901 34.752 160.741 36.24C161.581 37.728 162.001 39.48 162.001 41.496C162.001 41.688 161.989 41.904 161.965 42.144C161.965 42.384 161.953 42.612 161.929 42.828H145.909V39.84H159.553L157.789 40.776C157.813 39.672 157.585 38.7 157.105 37.86C156.625 37.02 155.965 36.36 155.125 35.88C154.309 35.4 153.361 35.16 152.281 35.16C151.177 35.16 150.205 35.4 149.365 35.88C148.549 36.36 147.901 37.032 147.421 37.896C146.965 38.736 146.737 39.732 146.737 40.884V41.604C146.737 42.756 147.001 43.776 147.529 44.664C148.057 45.552 148.801 46.236 149.761 46.716C150.721 47.196 151.825 47.436 153.073 47.436C154.153 47.436 155.125 47.268 155.989 46.932C156.853 46.596 157.621 46.068 158.293 45.348L160.705 48.12C159.841 49.128 158.749 49.908 157.429 50.46C156.133 50.988 154.645 51.252 152.965 51.252ZM177.578 51.252C176.018 51.252 174.59 50.892 173.294 50.172C172.022 49.452 171.002 48.372 170.234 46.932C169.49 45.468 169.118 43.62 169.118 41.388C169.118 39.132 169.478 37.284 170.198 35.844C170.942 34.404 171.95 33.336 173.222 32.64C174.494 31.92 175.946 31.56 177.578 31.56C179.474 31.56 181.142 31.968 182.582 32.784C184.046 33.6 185.198 34.74 186.038 36.204C186.902 37.668 187.334 39.396 187.334 41.388C187.334 43.38 186.902 45.12 186.038 46.608C185.198 48.072 184.046 49.212 182.582 50.028C181.142 50.844 179.474 51.252 177.578 51.252ZM166.922 57.984V31.776H171.206V36.312L171.062 41.424L171.422 46.536V57.984H166.922ZM177.074 47.4C178.154 47.4 179.114 47.16 179.954 46.68C180.818 46.2 181.502 45.504 182.006 44.592C182.51 43.68 182.762 42.612 182.762 41.388C182.762 40.14 182.51 39.072 182.006 38.184C181.502 37.272 180.818 36.576 179.954 36.096C179.114 35.616 178.154 35.376 177.074 35.376C175.994 35.376 175.022 35.616 174.158 36.096C173.294 36.576 172.61 37.272 172.106 38.184C171.602 39.072 171.35 40.14 171.35 41.388C171.35 42.612 171.602 43.68 172.106 44.592C172.61 45.504 173.294 46.2 174.158 46.68C175.022 47.16 175.994 47.4 177.074 47.4ZM192.865 51.252C192.049 51.252 191.353 50.976 190.777 50.424C190.201 49.848 189.913 49.128 189.913 48.264C189.913 47.352 190.201 46.632 190.777 46.104C191.353 45.552 192.049 45.276 192.865 45.276C193.681 45.276 194.377 45.552 194.953 46.104C195.529 46.632 195.817 47.352 195.817 48.264C195.817 49.128 195.529 49.848 194.953 50.424C194.377 50.976 193.681 51.252 192.865 51.252Z" fill="white"/>
<rect x="470.5" y="18" width="287" height="40" rx="19.5" stroke="white"/>
<path d="M513.312 32.8V44H512.144V33.824H505.056V44H503.888V32.8H513.312ZM520.291 44.08C519.48 44.08 518.75 43.8987 518.099 43.536C517.448 43.1627 516.936 42.6507 516.563 42C516.19 41.3493 516.003 40.6133 516.003 39.792C516.003 38.9707 516.19 38.2347 516.563 37.584C516.936 36.9333 517.448 36.4267 518.099 36.064C518.75 35.7013 519.48 35.52 520.291 35.52C521.102 35.52 521.832 35.7013 522.483 36.064C523.134 36.4267 523.64 36.9333 524.003 37.584C524.376 38.2347 524.563 38.9707 524.563 39.792C524.563 40.6133 524.376 41.3493 524.003 42C523.64 42.6507 523.134 43.1627 522.483 43.536C521.832 43.8987 521.102 44.08 520.291 44.08ZM520.291 43.072C520.888 43.072 521.422 42.9387 521.891 42.672C522.371 42.3947 522.744 42.0053 523.011 41.504C523.278 41.0027 523.411 40.432 523.411 39.792C523.411 39.152 523.278 38.5813 523.011 38.08C522.744 37.5787 522.371 37.1947 521.891 36.928C521.422 36.6507 520.888 36.512 520.291 36.512C519.694 36.512 519.155 36.6507 518.675 36.928C518.206 37.1947 517.832 37.5787 517.555 38.08C517.288 38.5813 517.155 39.152 517.155 39.792C517.155 40.432 517.288 41.0027 517.555 41.504C517.832 42.0053 518.206 42.3947 518.675 42.672C519.155 42.9387 519.694 43.072 520.291 43.072ZM526.991 35.584H528.127V42.272L533.743 35.584H534.751V44H533.615V37.312L528.015 44H526.991V35.584ZM541.527 44.08C540.695 44.08 539.948 43.8987 539.287 43.536C538.636 43.1733 538.124 42.6667 537.751 42.016C537.377 41.3547 537.191 40.6133 537.191 39.792C537.191 38.9707 537.377 38.2347 537.751 37.584C538.124 36.9333 538.636 36.4267 539.287 36.064C539.948 35.7013 540.695 35.52 541.527 35.52C542.252 35.52 542.897 35.664 543.463 35.952C544.039 36.2293 544.492 36.64 544.823 37.184L543.975 37.76C543.697 37.344 543.345 37.0347 542.919 36.832C542.492 36.6187 542.028 36.512 541.527 36.512C540.919 36.512 540.369 36.6507 539.879 36.928C539.399 37.1947 539.02 37.5787 538.743 38.08C538.476 38.5813 538.343 39.152 538.343 39.792C538.343 40.4427 538.476 41.0187 538.743 41.52C539.02 42.0107 539.399 42.3947 539.879 42.672C540.369 42.9387 540.919 43.072 541.527 43.072C542.028 43.072 542.492 42.9707 542.919 42.768C543.345 42.5653 543.697 42.256 543.975 41.84L544.823 42.416C544.492 42.96 544.039 43.376 543.463 43.664C542.887 43.9413 542.241 44.08 541.527 44.08ZM550.078 40.256H548.158V44H547.022V35.584H548.158V39.28H550.094L553.054 35.584H554.286L550.974 39.664L554.526 44H553.182L550.078 40.256Z" fill="white"/>
<path d="M1035.6 38.864H1033.04V44H1031.89V32.8H1033.04V37.824H1035.6L1039.39 32.8H1040.67L1036.51 38.24L1040.91 44H1039.55L1035.6 38.864ZM1045.5 35.52C1046.6 35.52 1047.44 35.7973 1048.02 36.352C1048.61 36.896 1048.9 37.7067 1048.9 38.784V44H1047.82V42.688C1047.56 43.1253 1047.18 43.4667 1046.68 43.712C1046.19 43.9573 1045.6 44.08 1044.92 44.08C1043.98 44.08 1043.24 43.856 1042.68 43.408C1042.13 42.96 1041.85 42.368 1041.85 41.632C1041.85 40.9173 1042.1 40.3413 1042.62 39.904C1043.14 39.4667 1043.97 39.248 1045.1 39.248H1047.77V38.736C1047.77 38.0107 1047.57 37.4613 1047.16 37.088C1046.76 36.704 1046.16 36.512 1045.38 36.512C1044.85 36.512 1044.34 36.6027 1043.85 36.784C1043.36 36.9547 1042.94 37.1947 1042.58 37.504L1042.07 36.656C1042.5 36.2933 1043.01 36.016 1043.61 35.824C1044.21 35.6213 1044.84 35.52 1045.5 35.52ZM1045.1 43.184C1045.74 43.184 1046.29 43.04 1046.74 42.752C1047.2 42.4533 1047.54 42.0267 1047.77 41.472V40.096H1045.13C1043.69 40.096 1042.97 40.5973 1042.97 41.6C1042.97 42.0907 1043.16 42.48 1043.53 42.768C1043.9 43.0453 1044.42 43.184 1045.1 43.184ZM1057.85 36.592H1054.66V44H1053.53V36.592H1050.34V35.584H1057.85V36.592ZM1062.39 35.52C1063.49 35.52 1064.33 35.7973 1064.92 36.352C1065.5 36.896 1065.8 37.7067 1065.8 38.784V44H1064.71V42.688C1064.45 43.1253 1064.07 43.4667 1063.57 43.712C1063.08 43.9573 1062.49 44.08 1061.81 44.08C1060.87 44.08 1060.13 43.856 1059.57 43.408C1059.02 42.96 1058.74 42.368 1058.74 41.632C1058.74 40.9173 1059 40.3413 1059.51 39.904C1060.03 39.4667 1060.86 39.248 1061.99 39.248H1064.66V38.736C1064.66 38.0107 1064.46 37.4613 1064.05 37.088C1063.65 36.704 1063.05 36.512 1062.28 36.512C1061.74 36.512 1061.23 36.6027 1060.74 36.784C1060.25 36.9547 1059.83 37.1947 1059.48 37.504L1058.96 36.656C1059.39 36.2933 1059.9 36.016 1060.5 35.824C1061.1 35.6213 1061.73 35.52 1062.39 35.52ZM1061.99 43.184C1062.63 43.184 1063.18 43.04 1063.64 42.752C1064.09 42.4533 1064.44 42.0267 1064.66 41.472V40.096H1062.02C1060.58 40.096 1059.86 40.5973 1059.86 41.6C1059.86 42.0907 1060.05 42.48 1060.42 42.768C1060.79 43.0453 1061.32 43.184 1061.99 43.184ZM1075.7 35.584V44H1074.56V36.592H1070.53L1070.42 38.672C1070.33 40.4213 1070.13 41.7653 1069.81 42.704C1069.49 43.6427 1068.92 44.112 1068.1 44.112C1067.88 44.112 1067.6 44.0693 1067.28 43.984L1067.36 43.008C1067.56 43.0507 1067.69 43.072 1067.76 43.072C1068.2 43.072 1068.53 42.8693 1068.76 42.464C1068.98 42.0587 1069.13 41.5573 1069.2 40.96C1069.28 40.3627 1069.34 39.5733 1069.4 38.592L1069.54 35.584H1075.7ZM1082.4 44.08C1081.59 44.08 1080.86 43.8987 1080.21 43.536C1079.56 43.1627 1079.05 42.6507 1078.67 42C1078.3 41.3493 1078.11 40.6133 1078.11 39.792C1078.11 38.9707 1078.3 38.2347 1078.67 37.584C1079.05 36.9333 1079.56 36.4267 1080.21 36.064C1080.86 35.7013 1081.59 35.52 1082.4 35.52C1083.21 35.52 1083.94 35.7013 1084.59 36.064C1085.24 36.4267 1085.75 36.9333 1086.11 37.584C1086.49 38.2347 1086.67 38.9707 1086.67 39.792C1086.67 40.6133 1086.49 41.3493 1086.11 42C1085.75 42.6507 1085.24 43.1627 1084.59 43.536C1083.94 43.8987 1083.21 44.08 1082.4 44.08ZM1082.4 43.072C1083 43.072 1083.53 42.9387 1084 42.672C1084.48 42.3947 1084.85 42.0053 1085.12 41.504C1085.39 41.0027 1085.52 40.432 1085.52 39.792C1085.52 39.152 1085.39 38.5813 1085.12 38.08C1084.85 37.5787 1084.48 37.1947 1084 36.928C1083.53 36.6507 1083 36.512 1082.4 36.512C1081.8 36.512 1081.26 36.6507 1080.78 36.928C1080.32 37.1947 1079.94 37.5787 1079.66 38.08C1079.4 38.5813 1079.26 39.152 1079.26 39.792C1079.26 40.432 1079.4 41.0027 1079.66 41.504C1079.94 42.0053 1080.32 42.3947 1080.78 42.672C1081.26 42.9387 1081.8 43.072 1082.4 43.072ZM1095.05 36.592H1090.24V44H1089.1V35.584H1095.05V36.592Z" fill="white"/>
<path d="M1137.55 44L1133.25 38.416L1134.21 37.84L1138.91 44H1137.55ZM1129.89 44V32.8H1131.04V44H1129.89ZM1130.69 38.864V37.824H1134.19V38.864H1130.69ZM1134.3 38.528L1133.22 38.336L1137.39 32.8H1138.67L1134.3 38.528ZM1143.82 44.08C1143.01 44.08 1142.28 43.8987 1141.63 43.536C1140.99 43.1627 1140.48 42.656 1140.11 42.016C1139.74 41.3653 1139.55 40.624 1139.55 39.792C1139.55 38.9493 1139.74 38.208 1140.11 37.568C1140.48 36.928 1140.99 36.4267 1141.63 36.064C1142.27 35.7013 1143 35.52 1143.82 35.52C1144.65 35.52 1145.39 35.7013 1146.03 36.064C1146.68 36.4267 1147.19 36.928 1147.55 37.568C1147.92 38.208 1148.11 38.9493 1148.11 39.792C1148.11 40.624 1147.92 41.3653 1147.55 42.016C1147.19 42.656 1146.68 43.1627 1146.03 43.536C1145.38 43.8987 1144.64 44.08 1143.82 44.08ZM1143.82 43.072C1144.43 43.072 1144.97 42.9387 1145.44 42.672C1145.91 42.3947 1146.28 42.0107 1146.54 41.52C1146.82 41.0187 1146.96 40.4427 1146.96 39.792C1146.96 39.1307 1146.82 38.5547 1146.54 38.064C1146.28 37.5733 1145.91 37.1947 1145.44 36.928C1144.97 36.6507 1144.44 36.512 1143.84 36.512C1143.24 36.512 1142.71 36.6507 1142.24 36.928C1141.77 37.1947 1141.4 37.5733 1141.12 38.064C1140.84 38.5547 1140.7 39.1307 1140.7 39.792C1140.7 40.4427 1140.84 41.0187 1141.12 41.52C1141.4 42.0107 1141.77 42.3947 1142.24 42.672C1142.71 42.9387 1143.24 43.072 1143.82 43.072ZM1154.87 44.08C1154.15 44.08 1153.49 43.9147 1152.91 43.584C1152.32 43.2427 1151.85 42.7573 1151.5 42.128C1151.16 41.488 1150.99 40.7093 1150.99 39.792C1150.99 38.8747 1151.16 38.1013 1151.5 37.472C1151.84 36.832 1152.3 36.3467 1152.89 36.016C1153.48 35.6853 1154.14 35.52 1154.87 35.52C1155.67 35.52 1156.39 35.7013 1157.02 36.064C1157.66 36.416 1158.16 36.9173 1158.52 37.568C1158.88 38.208 1159.07 38.9493 1159.07 39.792C1159.07 40.6453 1158.88 41.392 1158.52 42.032C1158.16 42.672 1157.66 43.1733 1157.02 43.536C1156.39 43.8987 1155.67 44.08 1154.87 44.08ZM1150.54 47.104V35.6H1151.63V38.128L1151.51 39.808L1151.67 41.504V47.104H1150.54ZM1154.79 43.072C1155.39 43.072 1155.92 42.9387 1156.39 42.672C1156.86 42.3947 1157.24 42.0107 1157.51 41.52C1157.79 41.0187 1157.93 40.4427 1157.93 39.792C1157.93 39.1413 1157.79 38.5707 1157.51 38.08C1157.24 37.5893 1156.86 37.2053 1156.39 36.928C1155.92 36.6507 1155.39 36.512 1154.79 36.512C1154.2 36.512 1153.66 36.6507 1153.18 36.928C1152.71 37.2053 1152.34 37.5893 1152.06 38.08C1151.79 38.5707 1151.66 39.1413 1151.66 39.792C1151.66 40.4427 1151.79 41.0187 1152.06 41.52C1152.34 42.0107 1152.71 42.3947 1153.18 42.672C1153.66 42.9387 1154.2 43.072 1154.79 43.072ZM1163.7 44.096C1163.09 44.096 1162.49 44.0107 1161.89 43.84C1161.29 43.6693 1160.77 43.408 1160.31 43.056L1160.68 42.208C1161.08 42.5067 1161.55 42.736 1162.08 42.896C1162.62 43.0453 1163.15 43.12 1163.67 43.12C1164.19 43.1093 1164.64 43.0347 1165.03 42.896C1165.41 42.7573 1165.71 42.5653 1165.92 42.32C1166.14 42.0747 1166.24 41.7973 1166.24 41.488C1166.24 41.04 1166.04 40.6933 1165.64 40.448C1165.23 40.192 1164.68 40.064 1163.97 40.064H1162.53V39.232H1163.89C1164.31 39.232 1164.68 39.1787 1165 39.072C1165.32 38.9653 1165.56 38.8107 1165.73 38.608C1165.91 38.4053 1166 38.1653 1166 37.888C1166 37.5893 1165.9 37.3333 1165.68 37.12C1165.48 36.9067 1165.2 36.7467 1164.84 36.64C1164.47 36.5333 1164.06 36.48 1163.6 36.48C1163.19 36.4907 1162.76 36.5547 1162.31 36.672C1161.86 36.7787 1161.42 36.944 1160.98 37.168L1160.66 36.288C1161.15 36.032 1161.64 35.84 1162.12 35.712C1162.61 35.5733 1163.1 35.504 1163.59 35.504C1164.26 35.4827 1164.86 35.5627 1165.4 35.744C1165.94 35.9253 1166.37 36.1867 1166.69 36.528C1167.01 36.8587 1167.17 37.2587 1167.17 37.728C1167.17 38.144 1167.04 38.5067 1166.79 38.816C1166.53 39.1253 1166.19 39.3653 1165.76 39.536C1165.34 39.7067 1164.85 39.792 1164.31 39.792L1164.36 39.488C1165.32 39.488 1166.06 39.6747 1166.6 40.048C1167.14 40.4213 1167.41 40.928 1167.41 41.568C1167.41 42.0693 1167.25 42.512 1166.92 42.896C1166.59 43.2693 1166.14 43.5627 1165.57 43.776C1165.02 43.9893 1164.39 44.096 1163.7 44.096ZM1169.99 44V35.6H1171.13V42.272L1176.74 35.6H1177.75V44H1176.62V37.312L1171.02 44H1169.99ZM1181.01 44V35.6H1182.14V39.312H1187.44V35.6H1188.57V44H1187.44V40.288H1182.14V44H1181.01ZM1197.02 44V42.144L1196.97 41.84V38.736C1196.97 38.0213 1196.77 37.472 1196.36 37.088C1195.97 36.704 1195.38 36.512 1194.59 36.512C1194.04 36.512 1193.53 36.6027 1193.04 36.784C1192.54 36.9653 1192.13 37.2053 1191.79 37.504L1191.28 36.656C1191.7 36.2933 1192.21 36.016 1192.81 35.824C1193.41 35.6213 1194.04 35.52 1194.7 35.52C1195.79 35.52 1196.62 35.792 1197.21 36.336C1197.81 36.8693 1198.11 37.6853 1198.11 38.784V44H1197.02ZM1194.12 44.08C1193.49 44.08 1192.94 43.9787 1192.48 43.776C1192.02 43.5627 1191.66 43.2747 1191.42 42.912C1191.17 42.5387 1191.05 42.112 1191.05 41.632C1191.05 41.1947 1191.15 40.8 1191.36 40.448C1191.57 40.0853 1191.91 39.7973 1192.38 39.584C1192.86 39.36 1193.5 39.248 1194.3 39.248H1197.2V40.096H1194.33C1193.52 40.096 1192.96 40.24 1192.64 40.528C1192.33 40.816 1192.17 41.1733 1192.17 41.6C1192.17 42.08 1192.36 42.464 1192.73 42.752C1193.1 43.04 1193.63 43.184 1194.3 43.184C1194.94 43.184 1195.49 43.04 1195.95 42.752C1196.42 42.4533 1196.76 42.0267 1196.97 41.472L1197.23 42.256C1197.01 42.8107 1196.64 43.2533 1196.11 43.584C1195.58 43.9147 1194.92 44.08 1194.12 44.08Z" fill="white"/>
</svg>
